<svg width="40" height="40" viewBox="0 0 40 40" fill="none" xmlns="http://www.w3.org/2000/svg">
<path d="M30 0H10C4.47715 0 0 4.47715 0 10V30C0 35.5228 4.47715 40 10 40H30C35.5228 40 40 35.5228 40 30V10C40 4.47715 35.5228 0 30 0Z" fill="#4A87C6"/>
<path fill-rule="evenodd" clip-rule="evenodd" d="M21.1512 28.2023H11.1785V30.6001H21.1512C26.6892 30.6001 31.1785 26.1229 31.1785 20.6001C31.1785 15.0773 26.6892 10.6001 21.1512 10.6001H11.2332V25.8862H21.1785C24.0908 25.8862 26.4517 23.5317 26.4517 20.6273C26.4517 17.723 24.0908 15.3685 21.1785 15.3685H18.4189V12.9979H21.1512C25.3612 12.9979 28.7741 16.4015 28.7741 20.6001C28.7741 24.7987 25.3612 28.2023 21.1512 28.2023ZM16.0145 12.9979V21.1723H18.4189V17.7663H21.1785C22.7629 17.7663 24.0473 19.0472 24.0473 20.6273C24.0473 22.2075 22.7629 23.4884 21.1785 23.4884H13.6375V12.9979H16.0145Z" fill="white"/>
</svg>
